<mxfile host="Electron" modified="2023-09-13T15:33:21.482Z" agent="Mozilla/5.0 (Macintosh; Intel Mac OS X 10_15_7) AppleWebKit/537.36 (KHTML, like Gecko) draw.io/21.6.8 Chrome/114.0.5735.289 Electron/25.5.0 Safari/537.36" etag="F9CYf5YbqITAouFqkwM8" version="21.6.8" type="device">
  <diagram name="Page-1" id="f1b7ffb7-ca1e-a977-7cf5-a751b3c06c05">
    <mxGraphModel dx="1114" dy="878" grid="1" gridSize="12" guides="1" tooltips="1" connect="1" arrows="1" fold="1" page="1" pageScale="1" pageWidth="1200" pageHeight="1600" background="none" math="0" shadow="0">
      <root>
        <mxCell id="0" />
        <mxCell id="1" parent="0" />
        <mxCell id="14" value="" style="verticalLabelPosition=bottom;verticalAlign=top;strokeWidth=1;shape=mxgraph.mockup.graphics.iconGrid;strokeColor=#CCCCCC;gridSize=1,1;" parent="1" vertex="1">
          <mxGeometry x="820" y="197" width="264" height="410" as="geometry" />
        </mxCell>
        <mxCell id="13" value="" style="verticalLabelPosition=bottom;verticalAlign=top;strokeWidth=1;shape=mxgraph.mockup.graphics.iconGrid;strokeColor=#CCCCCC;gridSize=1,1;direction=south;" parent="1" vertex="1">
          <mxGeometry x="120" y="118" width="676" height="262" as="geometry" />
        </mxCell>
        <mxCell id="2" value="Blog Name" style="text;spacingTop=-5;fontSize=18;fontStyle=0" parent="1" vertex="1">
          <mxGeometry x="170" y="30" width="230" height="20" as="geometry" />
        </mxCell>
        <mxCell id="3" value="" style="line;strokeWidth=1" parent="1" vertex="1">
          <mxGeometry x="120" y="60" width="964" height="10" as="geometry" />
        </mxCell>
        <mxCell id="4" value="" style="line;strokeWidth=1" parent="1" vertex="1">
          <mxGeometry x="120" y="90" width="964" height="10" as="geometry" />
        </mxCell>
        <mxCell id="5" value="Home" style="text;spacingTop=-5;" parent="1" vertex="1">
          <mxGeometry x="120" y="70.00000000000009" width="30" height="20" as="geometry" />
        </mxCell>
        <mxCell id="6" value="About" style="text;spacingTop=-5;" parent="1" vertex="1">
          <mxGeometry x="159.99999999999994" y="70.00000000000016" width="30" height="20" as="geometry" />
        </mxCell>
        <mxCell id="7" value="Associated blogs" style="text;spacingTop=-5;" parent="1" vertex="1">
          <mxGeometry x="559.9999999999999" y="70" width="30" height="20" as="geometry" />
        </mxCell>
        <mxCell id="8" value="Article title 1" style="text;spacingTop=-5;fontSize=18;fontStyle=1" parent="1" vertex="1">
          <mxGeometry x="120" y="132" width="50" height="20" as="geometry" />
        </mxCell>
        <mxCell id="9" value="Lorem ipsum dolor sit amet, consectetur adipisicing elit, sed do eiusmod tempor incididunt ut labore et dolore magna aliqua. Ut enim ad minim veniam, quis nostrud exercitation ullamco laboris nisi ut aliquip ex ea commodo consequat. Duis aute irure dolor in reprehenderit in voluptate velit esse cillum dolore eu fugiat nulla pariatur. Excepteur sint occaecat cupidatat non proident, sunt in culpa qui officia deserunt mollit anim id est laborum.&#xa;" style="text;spacingTop=-5;whiteSpace=wrap;align=left;fontSize=14;" parent="1" vertex="1">
          <mxGeometry x="364" y="163" width="412" height="147" as="geometry" />
        </mxCell>
        <mxCell id="10" value="Popular Posts" style="text;spacingTop=-5;fontSize=14;fontStyle=1" parent="1" vertex="1">
          <mxGeometry x="820" y="168" width="30" height="20" as="geometry" />
        </mxCell>
        <mxCell id="11" value="RSS" style="text;spacingTop=-5;" parent="1" vertex="1">
          <mxGeometry x="1056" y="70.00000000000013" width="30" height="20" as="geometry" />
        </mxCell>
        <mxCell id="12" value="Lorem ipsum dolor sit amet, consectetur adipisicing elit, sed do eiusmod tempor incididunt ut labore et dolore magna aliqua. Ut enim ad minim veniam, quis nostrud exercitation ullamco laboris nisi ut aliquip ex ea commodo consequat. Duis aute irure dolor in reprehenderit in voluptate velit esse ..." style="text;spacingTop=-5;whiteSpace=wrap;align=left" parent="1" vertex="1">
          <mxGeometry x="837" y="219" width="235" height="140" as="geometry" />
        </mxCell>
        <mxCell id="15" value="More" style="text;spacingTop=-5;fontStyle=4" parent="1" vertex="1">
          <mxGeometry x="1041" y="352" width="30" height="20" as="geometry" />
        </mxCell>
        <mxCell id="16" value="Yesterday" style="text;spacingTop=-5;fontStyle=0;align=right" parent="1" vertex="1">
          <mxGeometry x="1041" y="372" width="30" height="20" as="geometry" />
        </mxCell>
        <mxCell id="17" value="Lorem ipsum dolor sit amet, consectetur adipisicing elit, sed do eiusmod tempor incididunt ut labore et dolore magna aliqua. Ut enim ad minim veniam, quis nostrud exercitation ullamco laboris nisi ut aliquip ex ea commodo consequat. Duis aute irure dolor in reprehenderit in voluptate velit esse ..." style="text;spacingTop=-5;whiteSpace=wrap;align=left" parent="1" vertex="1">
          <mxGeometry x="832" y="399" width="240" height="140" as="geometry" />
        </mxCell>
        <mxCell id="18" value="More" style="text;spacingTop=-5;fontStyle=4" parent="1" vertex="1">
          <mxGeometry x="1036" y="532" width="30" height="20" as="geometry" />
        </mxCell>
        <mxCell id="19" value="1 week ago" style="text;spacingTop=-5;fontStyle=0;align=right" parent="1" vertex="1">
          <mxGeometry x="1036" y="552" width="30" height="20" as="geometry" />
        </mxCell>
        <mxCell id="20" value="" style="verticalLabelPosition=bottom;verticalAlign=top;strokeWidth=1;shape=mxgraph.mockup.graphics.iconGrid;strokeColor=#CCCCCC;gridSize=1,1;" parent="1" vertex="1">
          <mxGeometry x="120" y="15" width="40" height="40" as="geometry" />
        </mxCell>
        <mxCell id="21" value="Blog &#xa;Logo" style="text;spacingTop=-5;align=center" parent="1" vertex="1">
          <mxGeometry x="120" y="20" width="40" height="40" as="geometry" />
        </mxCell>
        <mxCell id="22" value="Blog&#39;s Main Topic 1" style="text;spacingTop=-5;" parent="1" vertex="1">
          <mxGeometry x="199.99999999999997" y="70.00000000000026" width="30" height="20" as="geometry" />
        </mxCell>
        <mxCell id="23" value="Blog&#39;s Main Topic 2" style="text;spacingTop=-5;" parent="1" vertex="1">
          <mxGeometry x="320" y="70.00000000000003" width="30" height="20" as="geometry" />
        </mxCell>
        <mxCell id="24" value="Blog&#39;s Main Topic 3" style="text;spacingTop=-5;" parent="1" vertex="1">
          <mxGeometry x="440" y="70.00000000000013" width="30" height="20" as="geometry" />
        </mxCell>
        <mxCell id="25" value="" style="verticalLabelPosition=bottom;verticalAlign=top;strokeWidth=1;shape=mxgraph.mockup.graphics.iconGrid;strokeColor=#CCCCCC;gridSize=1,1;" parent="1" vertex="1">
          <mxGeometry x="120" y="168" width="232" height="144" as="geometry" />
        </mxCell>
        <mxCell id="26" value="Article&#xa;Picture" style="text;spacingTop=-5;align=center;verticalAlign=middle;fontSize=36;fontColor=#CCCCCC" parent="1" vertex="1">
          <mxGeometry x="119" y="168" width="232" height="144" as="geometry" />
        </mxCell>
        <mxCell id="37" value="" style="verticalLabelPosition=bottom;verticalAlign=top;strokeWidth=1;shape=mxgraph.mockup.misc.rating;strokeColor=#999999;fillColor=#ffff00;emptyFillColor=#ffffff;grade=4;ratingScale=5;ratingStyle=star;" parent="1" vertex="1">
          <mxGeometry x="706" y="358.0000000000002" width="77.5" height="10" as="geometry" />
        </mxCell>
        <mxCell id="38" value="Rate this article" style="text;spacingTop=-5;" parent="1" vertex="1">
          <mxGeometry x="606.0000000000001" y="353.0000000000001" width="30" height="20" as="geometry" />
        </mxCell>
        <mxCell id="47" value="Tags: Tag1 Tag2 Tag3 Tag4" style="text;spacingTop=-5;" parent="1" vertex="1">
          <mxGeometry x="120" y="353.0000000000002" width="210" height="20" as="geometry" />
        </mxCell>
        <mxCell id="50" value="" style="verticalLabelPosition=bottom;verticalAlign=top;strokeWidth=1;shape=mxgraph.mockup.graphics.iconGrid;strokeColor=#CCCCCC;gridSize=1,1;" parent="1" vertex="1">
          <mxGeometry x="820" y="647" width="264" height="150" as="geometry" />
        </mxCell>
        <mxCell id="51" value="Me on Twitter" style="text;spacingTop=-5;" parent="1" vertex="1">
          <mxGeometry x="820" y="627" width="30" height="20" as="geometry" />
        </mxCell>
        <mxCell id="52" value="Lorem ipsum dolor sit amet, consectetur adipisicing elit" style="text;spacingTop=-5;whiteSpace=wrap;align=left" parent="1" vertex="1">
          <mxGeometry x="830" y="657" width="242" height="40" as="geometry" />
        </mxCell>
        <mxCell id="54" value="Yesterday" style="text;spacingTop=-5;fontStyle=0;align=right" parent="1" vertex="1">
          <mxGeometry x="1043" y="688" width="30" height="20" as="geometry" />
        </mxCell>
        <mxCell id="58" value="" style="verticalLabelPosition=bottom;verticalAlign=top;strokeWidth=1;shape=mxgraph.mockup.graphics.iconGrid;strokeColor=#CCCCCC;gridSize=1,1;" parent="1" vertex="1">
          <mxGeometry x="820" y="817" width="264" height="200" as="geometry" />
        </mxCell>
        <mxCell id="59" value="Tag Cloud" style="text;spacingTop=-5;align=center;verticalAlign=middle;fontSize=36;fontColor=#CCCCCC" parent="1" vertex="1">
          <mxGeometry x="820" y="817" width="264" height="200" as="geometry" />
        </mxCell>
        <mxCell id="60" value="Lorem ipsum dolor sit amet, consectetur adipisicing elit" style="text;spacingTop=-5;whiteSpace=wrap;align=left" parent="1" vertex="1">
          <mxGeometry x="830" y="727" width="242" height="40" as="geometry" />
        </mxCell>
        <mxCell id="61" value="1 Week ago" style="text;spacingTop=-5;fontStyle=0;align=right" parent="1" vertex="1">
          <mxGeometry x="1040" y="757" width="30" height="20" as="geometry" />
        </mxCell>
        <mxCell id="mbC6dMjlxRiztcu8YZ9Q-61" value="Search" style="strokeWidth=1;shadow=0;dashed=0;align=center;html=1;shape=mxgraph.mockup.forms.searchBox;strokeColor=#999999;mainText=;strokeColor2=#008cff;fontColor=#666666;fontSize=17;align=left;spacingLeft=3;whiteSpace=wrap;" parent="1" vertex="1">
          <mxGeometry x="820" y="118" width="264" height="30" as="geometry" />
        </mxCell>
        <mxCell id="Bh1I63L29sHGEGCgaaQu-61" value="Read more..." style="text;spacingTop=-5;fontStyle=7" vertex="1" parent="1">
          <mxGeometry x="687.0000000000001" y="312.0000000000001" width="30" height="20" as="geometry" />
        </mxCell>
        <mxCell id="Bh1I63L29sHGEGCgaaQu-80" value="" style="verticalLabelPosition=bottom;verticalAlign=top;strokeWidth=1;shape=mxgraph.mockup.graphics.iconGrid;strokeColor=#CCCCCC;gridSize=1,1;direction=south;" vertex="1" parent="1">
          <mxGeometry x="120" y="406" width="676" height="262" as="geometry" />
        </mxCell>
        <mxCell id="Bh1I63L29sHGEGCgaaQu-81" value="Article title 2" style="text;spacingTop=-5;fontSize=18;fontStyle=1" vertex="1" parent="1">
          <mxGeometry x="120" y="420" width="50" height="20" as="geometry" />
        </mxCell>
        <mxCell id="Bh1I63L29sHGEGCgaaQu-82" value="Lorem ipsum dolor sit amet, consectetur adipisicing elit, sed do eiusmod tempor incididunt ut labore et dolore magna aliqua. Ut enim ad minim veniam, quis nostrud exercitation ullamco laboris nisi ut aliquip ex ea commodo consequat. Duis aute irure dolor in reprehenderit in voluptate velit esse cillum dolore eu fugiat nulla pariatur. Excepteur sint occaecat cupidatat non proident, sunt in culpa qui officia deserunt mollit anim id est laborum.&#xa;" style="text;spacingTop=-5;whiteSpace=wrap;align=left;fontSize=14;" vertex="1" parent="1">
          <mxGeometry x="364" y="451" width="412" height="147" as="geometry" />
        </mxCell>
        <mxCell id="Bh1I63L29sHGEGCgaaQu-83" value="" style="verticalLabelPosition=bottom;verticalAlign=top;strokeWidth=1;shape=mxgraph.mockup.graphics.iconGrid;strokeColor=#CCCCCC;gridSize=1,1;" vertex="1" parent="1">
          <mxGeometry x="120" y="456" width="232" height="144" as="geometry" />
        </mxCell>
        <mxCell id="Bh1I63L29sHGEGCgaaQu-84" value="Article&#xa;Picture" style="text;spacingTop=-5;align=center;verticalAlign=middle;fontSize=36;fontColor=#CCCCCC" vertex="1" parent="1">
          <mxGeometry x="119" y="456" width="232" height="144" as="geometry" />
        </mxCell>
        <mxCell id="Bh1I63L29sHGEGCgaaQu-85" value="" style="verticalLabelPosition=bottom;verticalAlign=top;strokeWidth=1;shape=mxgraph.mockup.misc.rating;strokeColor=#999999;fillColor=#ffff00;emptyFillColor=#ffffff;grade=4;ratingScale=5;ratingStyle=star;" vertex="1" parent="1">
          <mxGeometry x="706" y="646.0000000000002" width="77.5" height="10" as="geometry" />
        </mxCell>
        <mxCell id="Bh1I63L29sHGEGCgaaQu-86" value="Rate this article" style="text;spacingTop=-5;" vertex="1" parent="1">
          <mxGeometry x="606.0000000000001" y="641.0000000000001" width="30" height="20" as="geometry" />
        </mxCell>
        <mxCell id="Bh1I63L29sHGEGCgaaQu-87" value="Tags: Tag1 Tag2 Tag3 Tag4" style="text;spacingTop=-5;" vertex="1" parent="1">
          <mxGeometry x="120" y="641.0000000000002" width="210" height="20" as="geometry" />
        </mxCell>
        <mxCell id="Bh1I63L29sHGEGCgaaQu-88" value="Read more..." style="text;spacingTop=-5;fontStyle=7" vertex="1" parent="1">
          <mxGeometry x="687.0000000000001" y="600.0000000000001" width="30" height="20" as="geometry" />
        </mxCell>
        <mxCell id="Bh1I63L29sHGEGCgaaQu-89" value="" style="verticalLabelPosition=bottom;verticalAlign=top;strokeWidth=1;shape=mxgraph.mockup.graphics.iconGrid;strokeColor=#CCCCCC;gridSize=1,1;direction=south;" vertex="1" parent="1">
          <mxGeometry x="120" y="694" width="676" height="262" as="geometry" />
        </mxCell>
        <mxCell id="Bh1I63L29sHGEGCgaaQu-90" value="Article title 3" style="text;spacingTop=-5;fontSize=18;fontStyle=1" vertex="1" parent="1">
          <mxGeometry x="120" y="708" width="50" height="20" as="geometry" />
        </mxCell>
        <mxCell id="Bh1I63L29sHGEGCgaaQu-91" value="Lorem ipsum dolor sit amet, consectetur adipisicing elit, sed do eiusmod tempor incididunt ut labore et dolore magna aliqua. Ut enim ad minim veniam, quis nostrud exercitation ullamco laboris nisi ut aliquip ex ea commodo consequat. Duis aute irure dolor in reprehenderit in voluptate velit esse cillum dolore eu fugiat nulla pariatur. Excepteur sint occaecat cupidatat non proident, sunt in culpa qui officia deserunt mollit anim id est laborum.&#xa;" style="text;spacingTop=-5;whiteSpace=wrap;align=left;fontSize=14;" vertex="1" parent="1">
          <mxGeometry x="364" y="739" width="412" height="147" as="geometry" />
        </mxCell>
        <mxCell id="Bh1I63L29sHGEGCgaaQu-92" value="" style="verticalLabelPosition=bottom;verticalAlign=top;strokeWidth=1;shape=mxgraph.mockup.graphics.iconGrid;strokeColor=#CCCCCC;gridSize=1,1;" vertex="1" parent="1">
          <mxGeometry x="120" y="744" width="232" height="144" as="geometry" />
        </mxCell>
        <mxCell id="Bh1I63L29sHGEGCgaaQu-93" value="Article&#xa;Picture" style="text;spacingTop=-5;align=center;verticalAlign=middle;fontSize=36;fontColor=#CCCCCC" vertex="1" parent="1">
          <mxGeometry x="119" y="744" width="232" height="144" as="geometry" />
        </mxCell>
        <mxCell id="Bh1I63L29sHGEGCgaaQu-94" value="" style="verticalLabelPosition=bottom;verticalAlign=top;strokeWidth=1;shape=mxgraph.mockup.misc.rating;strokeColor=#999999;fillColor=#ffff00;emptyFillColor=#ffffff;grade=4;ratingScale=5;ratingStyle=star;" vertex="1" parent="1">
          <mxGeometry x="706" y="934.0000000000002" width="77.5" height="10" as="geometry" />
        </mxCell>
        <mxCell id="Bh1I63L29sHGEGCgaaQu-95" value="Rate this article" style="text;spacingTop=-5;" vertex="1" parent="1">
          <mxGeometry x="606.0000000000001" y="929.0000000000001" width="30" height="20" as="geometry" />
        </mxCell>
        <mxCell id="Bh1I63L29sHGEGCgaaQu-96" value="Tags: Tag1 Tag2 Tag3 Tag4" style="text;spacingTop=-5;" vertex="1" parent="1">
          <mxGeometry x="120" y="929.0000000000002" width="210" height="20" as="geometry" />
        </mxCell>
        <mxCell id="Bh1I63L29sHGEGCgaaQu-97" value="Read more..." style="text;spacingTop=-5;fontStyle=7" vertex="1" parent="1">
          <mxGeometry x="687.0000000000001" y="888.0000000000001" width="30" height="20" as="geometry" />
        </mxCell>
      </root>
    </mxGraphModel>
  </diagram>
</mxfile>
